<?xml version="1.0" encoding="UTF-8" standalone="no"?>
<svg width="140px" height="240px" viewBox="0 0 140 240" version="1.1" xmlns="http://www.w3.org/2000/svg" xmlns:xlink="http://www.w3.org/1999/xlink">
    <!-- Generator: Sketch 42 (36781) - http://www.bohemiancoding.com/sketch -->
    <title>Group 5</title>
    <desc>Created with Sketch.</desc>
    <defs>
        <path d="M63.2438298,74.6236146 C74.7882489,79.5641058 88.4268891,75.2653312 94.8183701,64.1949613 C101.721929,52.2376457 97.5563036,36.9081945 85.5141844,29.9556738 C85.4781942,30.0180106 85.4406448,30.0830481 85.4015681,30.1507308 C81.4187097,27.5277805 76.6408094,26 71.5035461,26 C57.5985045,26 46.3262411,37.1928813 46.3262411,51 C46.3262411,61.9343388 53.3957633,71.2291301 63.2438298,74.6236146 Z M24.1702128,16.9966925 C24.1702128,7.60967843 31.7752346,0 41.1719746,0 L100.828025,0 C110.217839,0 117.829787,7.61426594 117.829787,16.9966925 L117.829787,222.003308 C117.829787,231.390322 110.224765,239 100.828025,239 L41.1719746,239 C31.7821608,239 24.1702128,231.385734 24.1702128,222.003308 L24.1702128,16.9966925 Z M71.5035461,144 C85.4085877,144 96.6808511,132.807119 96.6808511,119 C96.6808511,105.192881 85.4085877,94 71.5035461,94 C57.5985045,94 46.3262411,105.192881 46.3262411,119 C46.3262411,132.807119 57.5985045,144 71.5035461,144 Z M71.5035461,210 C85.4085877,210 96.6808511,198.807119 96.6808511,185 C96.6808511,171.192881 85.4085877,160 71.5035461,160 C57.5985045,160 46.3262411,171.192881 46.3262411,185 C46.3262411,198.807119 57.5985045,210 71.5035461,210 Z" id="path-1"></path>
        <mask id="mask-2" maskContentUnits="userSpaceOnUse" maskUnits="objectBoundingBox" x="0" y="0" width="93.6595745" height="239" fill="white">
            <use xlink:href="#path-1"></use>
        </mask>
        <path d="M54.2091554,166.83121 L64.0901419,142.898643 C66.4338272,143.614611 68.9233613,144 71.5035461,144 C85.4085877,144 96.6808511,132.807119 96.6808511,119 C96.6808511,109.352362 91.1772494,100.981107 83.1174636,96.8128956 L111.214878,28.7586326 C114.795786,20.0853771 117.698686,20.6669282 117.698686,30.0586135 L117.698686,222.901255 C117.698686,232.29247 110.093664,239.905554 100.696924,239.905554 L41.040873,239.905554 C31.6510592,239.905554 26.9448597,232.86759 30.5229186,224.201236 L46.3417799,185.886645 C46.8120529,199.28313 57.8973938,210 71.5035461,210 C85.4085877,210 96.6808511,198.807119 96.6808511,185 C96.6808511,171.192881 85.4085877,160 71.5035461,160 C64.8062053,160 58.71963,162.596582 54.2091554,166.83121 Z" id="path-3"></path>
        <mask id="mask-4" maskContentUnits="userSpaceOnUse" maskUnits="objectBoundingBox" x="0" y="0" width="88.3739042" height="217.289648" fill="white">
            <use xlink:href="#path-3"></use>
        </mask>
    </defs>
    <g id="Page-1" stroke="none" stroke-width="1" fill="none" fill-rule="evenodd">
        <g id="Group-5" transform="translate(-1.000000, 0.000000)">
            <path d="M116.822695,19.9978926 C116.822695,17.7899175 117.872478,17.4593463 119.157435,19.2456173 L139.66526,47.7543827 C140.954701,49.5468876 140.209494,51 137.99667,51 L120.826025,51 C118.615047,51 116.822695,49.2162267 116.822695,47.0021074 L116.822695,19.9978926 Z" id="Triangle" stroke="#93A1B3" fill="#93A1B3" transform="translate(129.411348, 33.500000) scale(1, -1) translate(-129.411348, -33.500000) "></path>
            <path d="M116.822695,88.9978926 C116.822695,86.7899175 117.872478,86.4593463 119.157435,88.2456173 L139.66526,116.754383 C140.954701,118.546888 140.209494,120 137.99667,120 L120.826025,120 C118.615047,120 116.822695,118.216227 116.822695,116.002107 L116.822695,88.9978926 Z" id="Triangle" stroke="#93A1B3" fill="#93A1B3" transform="translate(129.411348, 102.500000) scale(1, -1) translate(-129.411348, -102.500000) "></path>
            <path d="M116.822695,153.997893 C116.822695,151.789917 117.872478,151.459346 119.157435,153.245617 L139.66526,181.754383 C140.954701,183.546888 140.209494,185 137.99667,185 L120.826025,185 C118.615047,185 116.822695,183.216227 116.822695,181.002107 L116.822695,153.997893 Z" id="Triangle" stroke="#93A1B3" fill="#93A1B3" transform="translate(129.411348, 167.500000) scale(1, -1) translate(-129.411348, -167.500000) "></path>
            <path d="M0,19.9978926 C0,17.7899175 1.04978308,17.4593463 2.3347399,19.2456173 L22.8425651,47.7543827 C24.1320063,49.5468876 23.3867991,51 21.1739752,51 L4.0033298,51 C1.7923518,51 0,49.2162267 0,47.0021074 L0,19.9978926 Z" id="Triangle" stroke="#C0CCDA" fill="#C0CCDA" transform="translate(12.588652, 33.500000) scale(-1, -1) translate(-12.588652, -33.500000) "></path>
            <path d="M0,89.9978926 C0,87.7899175 1.04978308,87.4593463 2.3347399,89.2456173 L22.8425651,117.754383 C24.1320063,119.546888 23.3867991,121 21.1739752,121 L4.0033298,121 C1.7923518,121 0,119.216227 0,117.002107 L0,89.9978926 Z" id="Triangle" stroke="#C0CCDA" fill="#C0CCDA" transform="translate(12.588652, 103.500000) scale(-1, -1) translate(-12.588652, -103.500000) "></path>
            <path d="M0,153.997893 C0,151.789917 1.04978308,151.459346 2.3347399,153.245617 L22.8425651,181.754383 C24.1320063,183.546888 23.3867991,185 21.1739752,185 L4.0033298,185 C1.7923518,185 0,183.216227 0,181.002107 L0,153.997893 Z" id="Triangle" stroke="#C0CCDA" fill="#C0CCDA" transform="translate(12.588652, 167.500000) scale(-1, -1) translate(-12.588652, -167.500000) "></path>
            <use id="Combined-Shape" stroke="#3C4858" mask="url(#mask-2)" stroke-width="2" fill="#3C4858" xlink:href="#path-1"></use>
            <use id="Combined-Shape" stroke="#273444" mask="url(#mask-4)" stroke-width="2" fill="#273444" xlink:href="#path-3"></use>
            <g id="Group-2" transform="translate(36.262411, 16.000000)">
                <ellipse id="Oval-2" stroke="#C0CCDA" fill="#C0CCDA" cx="2.5177305" cy="35.5" rx="2.5177305" ry="2.5"></ellipse>
                <path d="M65.461,35 C67.2059413,35 68.888603,35 70.4964539,35 C70.4964539,15.6700338 54.7152852,0 35.248227,0 C15.7811687,0 0,15.6700338 0,35 C1.59578351,35 3.27896883,35 5.03544794,35 C5.03546099,18.4314575 18.5621771,5 35.248227,5 C51.9342768,5 65.4609929,18.4314575 65.4609929,35 Z" id="Combined-Shape" stroke="#C0CCDA" stroke-linecap="round" stroke-linejoin="round" fill="#C0CCDA"></path>
                <path d="M65.4609175,34.9322418 C66.6555589,34.9756196 68.2927945,35 70.4964539,35 C70.4964539,22.1150334 63.4844271,10.85628 53.0427606,4.78089875 C51.999579,6.65572726 51.3604177,8.15624426 50.9372034,9.35682432 C59.6274571,14.6102962 65.4367932,24.0967158 65.4609175,34.9322418 Z" id="Combined-Shape" stroke="#8492A6" stroke-linecap="round" stroke-linejoin="round" fill="#8492A6" opacity="0.75"></path>
                <ellipse id="Oval-2" stroke="#93A1B3" fill="#93A1B3" cx="67.9787234" cy="35.5" rx="2.5177305" ry="2.5"></ellipse>
            </g>
            <g id="Group-2" transform="translate(36.262411, 85.000000)">
                <ellipse id="Oval-2" stroke="#C0CCDA" fill="#C0CCDA" cx="2.5177305" cy="35.5" rx="2.5177305" ry="2.5"></ellipse>
                <path d="M65.461,35 C67.2059413,35 68.888603,35 70.4964539,35 C70.4964539,15.6700338 54.7152852,0 35.248227,0 C15.7811687,0 0,15.6700338 0,35 C1.59578351,35 3.27896883,35 5.03544794,35 C5.03546099,18.4314575 18.5621771,5 35.248227,5 C51.9342768,5 65.4609929,18.4314575 65.4609929,35 Z" id="Combined-Shape" stroke="#C0CCDA" stroke-linecap="round" stroke-linejoin="round" fill="#C0CCDA"></path>
                <path d="M65.4609175,34.9322418 C66.6555589,34.9756196 68.2927945,35 70.4964539,35 C70.4964539,22.1150334 63.4844271,10.85628 53.0427606,4.78089875 C51.999579,6.65572726 51.3604177,8.15624426 50.9372034,9.35682432 C59.6274571,14.6102962 65.4367932,24.0967158 65.4609175,34.9322418 Z" id="Combined-Shape" stroke="#8492A6" stroke-linecap="round" stroke-linejoin="round" fill="#8492A6" opacity="0.75"></path>
                <ellipse id="Oval-2" stroke="#93A1B3" fill="#93A1B3" cx="67.9787234" cy="35.5" rx="2.5177305" ry="2.5"></ellipse>
            </g>
            <g id="Group-2" transform="translate(36.262411, 150.000000)">
                <ellipse id="Oval-2" stroke="#C0CCDA" fill="#C0CCDA" cx="2.5177305" cy="35.5" rx="2.5177305" ry="2.5"></ellipse>
                <path d="M65.461,35 C67.2059413,35 68.888603,35 70.4964539,35 C70.4964539,15.6700338 54.7152852,0 35.248227,0 C15.7811687,0 0,15.6700338 0,35 C1.59578351,35 3.27896883,35 5.03544794,35 C5.03546099,18.4314575 18.5621771,5 35.248227,5 C51.9342768,5 65.4609929,18.4314575 65.4609929,35 Z" id="Combined-Shape" stroke="#C0CCDA" stroke-linecap="round" stroke-linejoin="round" fill="#C0CCDA"></path>
                <path d="M65.4609175,34.9322418 C66.6555589,34.9756196 68.2927945,35 70.4964539,35 C70.4964539,22.1150334 63.4844271,10.85628 53.0427606,4.78089875 C51.999579,6.65572726 51.3604177,8.15624426 50.9372034,9.35682432 C59.6274571,14.6102962 65.4367932,24.0967158 65.4609175,34.9322418 Z" id="Combined-Shape" stroke="#8492A6" stroke-linecap="round" stroke-linejoin="round" fill="#8492A6" opacity="0.75"></path>
                <ellipse id="Oval-2" stroke="#93A1B3" fill="#93A1B3" cx="67.9787234" cy="35.5" rx="2.5177305" ry="2.5"></ellipse>
            </g>
        </g>
    </g>
</svg>